<?xml version="1.0" standalone="no"?>
<!DOCTYPE svg PUBLIC "-//W3C//DTD SVG 20010904//EN"
 "http://www.w3.org/TR/2001/REC-SVG-20010904/DTD/svg10.dtd">
<svg version="1.0" xmlns="http://www.w3.org/2000/svg"
 width="418.000000pt" height="418.000000pt" viewBox="0 0 418.000000 418.000000"
 preserveAspectRatio="xMidYMid meet">
<metadata>
Created by potrace 1.14, written by Peter Selinger 2001-2017
</metadata>
<g transform="translate(0.000000,418.000000) scale(0.100000,-0.100000)"
fill="#000000" stroke="none">
<path d="M0 2594 l0 -1225 38 5 c20 3 55 8 77 11 22 2 63 7 90 11 28 3 61 7
75 9 83 10 176 22 275 35 44 7 98 13 120 15 35 3 545 68 630 80 17 2 71 9 120
15 89 10 147 18 195 25 14 2 50 6 80 10 76 9 130 15 160 20 14 2 50 6 80 10
50 5 85 10 160 20 22 3 65 9 165 21 17 2 50 6 75 9 91 12 116 15 165 20 28 3
61 8 75 10 14 2 50 7 80 10 30 3 66 7 80 10 14 2 48 7 75 10 28 3 64 7 80 9
17 3 53 7 80 11 69 8 125 16 126 18 0 1 3 368 6 815 l4 812 -23 2 c-13 0 -27
2 -33 3 -5 1 -35 5 -65 9 -30 4 -66 9 -80 11 -42 7 -162 24 -215 30 -27 4 -61
8 -75 11 -14 2 -45 7 -70 10 -25 3 -56 7 -70 9 -27 4 -101 15 -140 20 -14 2
-63 9 -110 15 -47 7 -98 14 -115 16 -76 11 -103 14 -140 19 -22 3 -74 10 -115
16 -41 6 -86 13 -100 14 -14 1 -38 5 -55 8 -16 4 -52 9 -80 12 -43 5 -106 13
-293 40 -18 3 -54 7 -80 10 -26 3 -54 8 -62 10 -8 3 -39 7 -68 10 -29 2 -81 9
-115 14 -34 6 -82 13 -107 16 -25 3 -88 12 -140 20 -52 8 -115 16 -140 20 -47
6 -176 24 -220 30 -14 2 -59 9 -100 15 -41 6 -97 13 -125 15 -27 3 -57 8 -65
10 -8 3 -36 7 -62 10 l-48 4 0 -1225z"/>
<path d="M3069 1646 c-2 -2 -33 -7 -69 -11 -36 -4 -72 -8 -80 -10 -8 -2 -44
-6 -80 -10 -36 -4 -72 -8 -80 -10 -8 -1 -44 -6 -80 -10 -67 -7 -107 -12 -150
-20 -14 -2 -50 -7 -80 -10 -30 -3 -71 -8 -90 -10 -19 -3 -57 -8 -85 -11 -27
-3 -61 -7 -75 -9 -14 -2 -45 -6 -70 -10 -25 -3 -61 -8 -80 -10 -19 -3 -57 -7
-85 -10 -50 -5 -107 -13 -155 -20 -14 -2 -52 -7 -85 -11 -33 -3 -67 -8 -75 -9
-9 -2 -43 -6 -75 -10 -33 -4 -71 -8 -85 -10 -14 -2 -47 -7 -75 -10 -27 -3 -63
-8 -80 -10 -16 -2 -52 -7 -80 -10 -27 -3 -97 -12 -155 -20 -58 -8 -130 -17
-160 -20 -54 -5 -109 -12 -160 -20 -26 -4 -96 -12 -165 -20 -22 -3 -56 -7 -75
-10 -19 -2 -53 -7 -75 -9 -22 -3 -60 -8 -85 -11 -80 -9 -134 -16 -161 -21 -14
-2 -50 -6 -80 -9 -30 -3 -63 -7 -74 -10 -11 -2 -24 -4 -30 -4 -5 -1 15 -14 45
-29 30 -16 89 -47 130 -69 41 -22 122 -65 180 -95 58 -31 211 -112 340 -180
129 -69 242 -128 250 -131 8 -4 35 -19 60 -33 25 -14 99 -54 165 -88 214 -113
318 -168 420 -224 55 -30 111 -54 125 -53 14 0 165 46 335 101 171 55 317 102
325 104 8 2 87 27 175 56 88 28 214 69 280 90 66 21 242 77 390 125 149 48
313 100 365 117 52 17 127 40 165 53 39 12 143 46 233 75 l162 53 -397 196
c-219 109 -454 225 -523 259 -109 54 -175 74 -191 58z"/>
</g>
</svg>
